<svg id="svg" version="1.1" xmlns="http://www.w3.org/2000/svg" xmlns:xlink="http://www.w3.org/1999/xlink" width="400" height="394.3342776203966" viewBox="0, 0, 400,394.3342776203966"><g id="svgg"><path id="path0" d="M193.521 68.678 C 189.256 73.038,185.068 77.552,184.213 78.708 C 183.359 79.865,182.477 80.924,182.254 81.062 C 182.030 81.200,180.836 82.589,179.600 84.148 C 177.202 87.171,164.679 101.417,159.763 106.711 C 158.136 108.464,155.755 111.044,154.473 112.444 C 153.191 113.844,149.717 117.564,146.753 120.710 C 143.789 123.856,140.691 127.184,139.867 128.107 C 136.897 131.432,136.884 131.376,136.884 115.352 L 136.884 102.170 116.812 102.170 L 96.741 102.170 96.293 103.948 C 95.972 105.221,95.870 115.307,95.935 139.393 C 96.019 170.876,95.980 173.121,95.337 174.005 C 94.958 174.525,94.222 175.537,93.700 176.255 C 92.977 177.248,74.818 196.991,68.263 203.909 C 64.605 207.771,59.155 213.890,58.825 214.507 C 58.118 215.828,63.238 222.192,66.586 224.155 L 67.753 224.839 70.281 222.380 C 74.307 218.464,81.403 210.971,87.553 204.142 C 90.679 200.671,94.957 196.055,97.059 193.886 C 99.162 191.716,101.994 188.698,103.353 187.179 C 104.712 185.661,108.163 181.933,111.022 178.895 C 113.880 175.858,116.918 172.580,117.774 171.610 C 118.629 170.641,121.029 168.067,123.107 165.890 C 125.185 163.714,128.913 159.721,131.391 157.016 C 133.870 154.312,137.927 149.963,140.408 147.352 C 142.888 144.740,146.603 140.828,148.663 138.659 C 150.722 136.489,153.677 133.383,155.228 131.755 C 156.779 130.128,162.018 124.448,166.869 119.132 C 171.719 113.817,176.943 108.133,178.475 106.502 C 180.008 104.871,183.925 100.536,187.179 96.868 C 190.434 93.201,194.177 89.025,195.498 87.590 C 196.819 86.154,198.215 84.499,198.601 83.910 C 200.365 81.217,201.779 82.277,213.258 94.903 C 229.330 112.582,232.347 116.055,232.347 116.880 C 232.347 117.206,230.192 119.222,227.558 121.360 C 213.882 132.458,200.058 146.189,185.355 163.278 C 183.972 164.886,181.291 167.953,179.397 170.093 C 170.015 180.696,158.343 196.547,149.823 210.256 C 147.521 213.961,146.294 216.037,141.318 224.655 C 123.266 255.913,108.586 300.413,107.223 328.008 L 107.125 329.980 115.989 330.190 C 129.750 330.515,290.791 330.680,292.006 330.370 L 293.084 330.095 293.189 259.032 C 293.294 187.928,293.322 186.588,294.720 186.588 C 295.670 186.588,307.309 197.983,320.793 212.114 C 326.425 218.018,331.418 222.968,331.888 223.115 C 332.357 223.262,333.165 223.713,333.682 224.117 C 335.345 225.416,338.152 223.756,341.425 219.541 C 343.937 216.307,343.887 215.033,341.125 211.965 C 339.384 210.031,331.698 201.580,330.383 200.155 C 329.009 198.664,313.495 182.106,307.890 176.147 C 304.201 172.226,299.680 167.337,297.842 165.283 C 296.004 163.228,294.114 161.191,293.643 160.754 C 293.172 160.318,291.762 158.807,290.509 157.396 C 289.257 155.986,285.811 152.258,282.852 149.112 C 279.893 145.966,275.440 141.174,272.957 138.462 C 270.474 135.751,266.489 131.477,264.103 128.966 C 249.023 113.097,227.426 89.209,217.943 77.909 C 207.431 65.382,202.977 60.750,201.447 60.750 C 201.353 60.750,197.787 64.317,193.521 68.678 M191.931 233.315 L 192.899 234.284 192.899 250.400 C 192.899 263.709,192.802 266.649,192.339 267.282 C 191.621 268.261,158.676 268.500,157.712 267.533 C 156.949 266.769,156.964 234.330,157.727 233.410 C 158.392 232.609,160.039 232.526,177.434 232.426 L 190.963 232.347 191.931 233.315 M245.718 233.463 C 246.432 234.620,246.679 266.705,245.979 267.405 C 244.685 268.701,213.331 268.501,212.019 267.189 C 211.400 266.570,211.192 236.489,211.791 234.320 C 212.161 232.980,213.991 232.848,231.474 232.899 C 242.596 232.931,245.459 233.044,245.718 233.463 M192.119 280.868 C 192.822 281.981,192.610 315.003,191.897 315.596 C 190.742 316.554,158.269 316.374,157.561 315.406 C 156.526 313.991,156.755 281.904,157.807 280.852 C 158.884 279.775,191.438 279.790,192.119 280.868 M246.210 280.766 C 246.940 281.496,246.962 314.532,246.233 315.264 C 245.640 315.860,212.159 316.039,211.571 315.450 C 211.391 315.268,211.243 307.698,211.243 298.627 C 211.243 279.943,211.121 280.661,214.342 280.364 C 218.781 279.955,245.739 280.295,246.210 280.766 " stroke="none" fill="#0f6cb1" fill-rule="evenodd"></path><path id="path1" d="M0.000 197.239 L 0.000 394.477 200.000 394.477 L 400.000 394.477 400.000 197.239 L 400.000 0.000 200.000 0.000 L 0.000 0.000 0.000 197.239 M204.536 60.102 C 206.935 61.744,209.511 64.145,210.521 65.680 C 211.092 66.548,213.095 68.856,214.971 70.809 C 218.144 74.111,219.586 75.832,224.676 82.398 C 225.749 83.781,227.781 86.098,229.191 87.545 C 232.543 90.984,234.533 93.160,236.976 96.055 C 238.074 97.357,240.429 99.931,242.211 101.775 C 243.992 103.619,245.941 105.838,246.543 106.706 C 247.145 107.574,248.945 109.538,250.544 111.072 C 252.143 112.605,255.049 115.684,257.002 117.915 C 258.955 120.145,261.173 122.530,261.932 123.214 C 264.665 125.678,271.162 132.607,273.680 135.743 C 275.367 137.845,277.835 140.514,284.418 147.353 C 293.887 157.190,298.979 162.686,299.979 164.147 C 300.482 164.882,302.357 166.809,304.145 168.429 C 305.934 170.050,308.129 172.465,309.024 173.796 C 309.919 175.128,312.126 177.570,313.929 179.224 C 315.733 180.878,317.834 182.990,318.600 183.917 C 319.365 184.843,322.362 188.093,325.258 191.139 C 328.155 194.185,331.043 197.329,331.677 198.127 C 332.311 198.924,333.609 200.205,334.561 200.972 C 336.643 202.651,336.056 202.030,340.542 207.298 C 346.096 213.820,346.451 215.926,342.886 221.206 C 339.097 226.819,335.149 227.996,330.678 224.846 C 327.683 222.736,326.494 221.622,318.683 213.601 C 315.941 210.785,312.923 207.758,311.977 206.873 C 311.031 205.989,308.304 203.168,305.917 200.603 C 300.222 194.484,297.345 193.050,296.202 195.759 C 295.575 197.245,295.408 294.924,295.996 316.765 C 296.362 330.404,296.331 330.573,293.207 332.041 C 291.620 332.787,296.531 332.757,137.475 332.972 C 111.290 333.007,107.231 332.816,105.902 331.487 C 104.602 330.187,105.600 315.991,107.521 308.481 C 108.622 304.172,109.515 299.994,110.682 293.688 C 111.273 290.489,112.225 287.119,114.442 280.373 C 114.852 279.125,115.190 277.882,115.193 277.612 C 115.197 277.342,115.921 275.256,116.804 272.978 C 117.686 270.700,118.924 267.343,119.556 265.518 C 120.187 263.692,120.971 261.790,121.298 261.291 C 121.626 260.791,121.895 260.066,121.896 259.679 C 121.898 259.291,122.251 258.442,122.682 257.791 C 123.114 257.140,123.467 256.365,123.469 256.069 C 123.470 255.773,124.093 254.204,124.852 252.582 C 125.611 250.961,126.233 249.566,126.233 249.483 C 126.233 249.399,128.540 244.638,131.361 238.901 C 134.181 233.164,136.489 228.363,136.489 228.232 C 136.489 228.101,137.226 226.799,138.127 225.338 C 139.028 223.877,140.157 221.972,140.636 221.105 C 141.115 220.237,142.686 217.574,144.128 215.187 C 145.569 212.801,147.148 210.180,147.635 209.363 C 148.122 208.546,149.080 207.038,149.765 206.010 C 150.449 204.983,151.775 202.899,152.711 201.381 C 153.647 199.862,155.218 197.542,156.201 196.225 C 157.184 194.908,158.609 192.805,159.369 191.552 C 160.128 190.299,161.396 188.536,162.187 187.635 C 162.978 186.734,164.250 185.046,165.014 183.885 C 166.349 181.858,168.130 179.686,172.033 175.324 C 173.032 174.208,174.606 172.292,175.532 171.066 C 176.458 169.840,177.327 168.836,177.464 168.836 C 177.601 168.836,179.575 166.395,181.852 163.412 C 184.192 160.346,188.490 155.473,191.738 152.204 C 194.899 149.023,197.916 145.790,198.443 145.020 C 198.971 144.250,199.819 143.398,200.327 143.126 C 200.836 142.853,201.985 141.755,202.881 140.686 C 203.776 139.616,205.045 138.415,205.701 138.016 C 206.357 137.617,208.477 135.735,210.413 133.833 C 212.348 131.931,214.408 130.020,214.991 129.586 C 215.573 129.152,216.983 127.674,218.123 126.301 C 219.264 124.929,221.153 123.194,222.322 122.446 C 225.596 120.352,228.092 117.584,227.794 116.378 C 226.990 113.119,206.876 90.030,202.136 86.924 C 200.451 85.820,195.141 89.116,193.503 92.285 C 193.213 92.845,192.027 94.191,190.867 95.276 C 189.707 96.361,187.260 98.933,185.431 100.991 C 183.601 103.050,181.737 105.089,181.289 105.523 C 180.840 105.957,177.788 109.241,174.507 112.821 C 171.225 116.400,166.610 121.398,164.250 123.927 C 161.891 126.456,156.943 131.761,153.254 135.716 C 149.566 139.672,143.065 146.567,138.809 151.040 C 134.552 155.512,130.205 160.148,129.150 161.341 C 128.095 162.535,125.709 165.108,123.849 167.061 C 121.989 169.014,118.547 172.742,116.199 175.345 C 113.851 177.949,111.288 180.702,110.502 181.462 C 109.716 182.223,107.311 184.797,105.158 187.182 C 103.005 189.567,99.633 193.212,97.663 195.281 C 95.694 197.350,92.061 201.255,89.589 203.959 C 74.777 220.164,69.521 225.504,68.007 225.884 C 66.712 226.209,64.590 224.713,61.208 221.092 C 56.218 215.748,56.180 215.070,60.604 210.221 C 62.269 208.396,64.430 206.016,65.406 204.931 C 66.382 203.846,69.684 200.298,72.742 197.047 C 75.801 193.796,79.280 190.069,80.473 188.767 C 81.667 187.464,83.814 185.154,85.246 183.633 C 89.895 178.694,92.308 175.951,92.308 175.603 C 92.308 175.416,92.733 174.804,93.252 174.244 C 94.608 172.781,94.619 172.523,94.902 135.306 C 95.047 116.137,95.310 101.679,95.520 101.282 C 95.994 100.387,136.217 100.197,137.378 101.085 C 137.939 101.514,138.058 103.121,138.287 113.412 C 138.432 119.921,138.672 125.379,138.820 125.540 C 139.146 125.897,143.306 122.230,146.548 118.730 C 147.850 117.324,150.357 114.665,152.119 112.821 C 153.881 110.976,157.140 107.426,159.361 104.931 C 161.583 102.436,165.552 98.018,168.182 95.113 C 176.142 86.322,180.439 80.845,183.065 76.145 C 183.406 75.535,186.779 71.815,190.560 67.878 C 199.343 58.735,201.107 57.754,204.536 60.102 M163.764 235.844 C 160.135 237.385,160.214 237.091,159.905 250.164 C 159.510 266.908,158.236 265.629,175.345 265.659 C 188.385 265.683,189.261 265.538,190.209 263.196 C 191.218 260.705,190.826 237.399,189.753 236.106 C 189.126 235.351,186.773 235.157,175.740 234.954 L 166.272 234.779 163.764 235.844 M219.783 235.889 C 213.687 236.347,214.071 235.559,213.704 248.375 C 213.185 266.541,212.763 266.000,227.613 266.215 C 245.236 266.470,244.325 267.319,243.966 250.969 C 243.700 238.850,243.498 237.427,241.896 236.377 C 240.717 235.604,227.474 235.312,219.783 235.889 M222.091 282.484 C 213.446 283.004,213.709 282.446,213.643 300.394 C 213.592 314.169,212.161 312.974,228.913 313.150 C 246.403 313.334,244.615 315.148,244.390 297.444 C 244.199 282.466,244.344 283.021,240.545 282.689 C 236.434 282.329,226.497 282.218,222.091 282.484 M162.130 282.905 C 159.490 283.646,159.579 283.190,159.441 296.713 C 159.261 314.504,158.872 314.100,175.937 313.818 C 191.042 313.569,189.909 314.750,190.049 299.102 C 190.165 286.151,190.037 283.979,189.100 283.042 C 188.394 282.336,164.587 282.215,162.130 282.905 " stroke="none" fill="#f4f5f5" fill-rule="evenodd"></path><path id="path2" d="M195.574 64.990 C 187.900 72.904,184.068 76.984,183.206 78.154 C 181.176 80.914,177.306 85.503,172.998 90.259 C 170.384 93.145,167.197 96.696,165.918 98.148 C 161.908 102.699,151.194 114.349,145.432 120.423 C 142.391 123.628,139.658 126.602,139.358 127.031 C 138.196 128.689,138.076 127.645,137.968 114.892 L 137.859 101.972 137.766 115.286 C 137.662 130.045,137.592 129.709,140.187 126.734 C 141.082 125.708,145.547 120.870,150.108 115.984 C 159.748 105.658,175.173 88.617,178.288 84.852 C 181.443 81.037,190.084 71.486,195.069 66.303 C 197.456 63.822,199.800 61.379,200.278 60.876 C 202.016 59.047,203.765 60.538,213.544 72.186 C 224.911 85.726,243.038 105.939,262.718 127.022 C 269.301 134.073,278.074 143.480,282.215 147.927 C 286.356 152.373,291.252 157.615,293.097 159.576 C 294.941 161.536,299.467 166.413,303.156 170.413 C 306.844 174.413,313.412 181.479,317.751 186.115 C 322.091 190.751,327.395 196.437,329.539 198.751 C 331.683 201.065,335.639 205.304,338.331 208.170 C 345.321 215.613,345.398 216.308,339.854 221.915 C 335.994 225.819,335.074 226.189,333.173 224.599 C 332.432 223.979,331.199 223.028,330.433 222.485 C 329.667 221.943,326.326 218.570,323.010 214.990 C 308.277 199.088,294.603 185.842,293.791 186.686 C 293.738 186.741,293.605 219.181,293.495 258.777 L 293.294 330.769 200.197 330.628 C 148.994 330.550,106.953 330.397,106.774 330.289 C 106.420 330.076,106.480 329.492,107.931 319.132 C 114.967 268.901,144.068 207.999,179.423 169.516 C 181.843 166.882,187.670 160.220,190.477 156.879 C 200.947 144.415,219.912 126.351,230.538 118.720 C 233.071 116.901,233.480 117.616,223.924 107.158 C 221.288 104.275,217.801 100.421,216.174 98.596 C 214.546 96.770,211.617 93.581,209.665 91.510 C 207.712 89.438,205.122 86.640,203.910 85.292 C 201.357 82.453,200.085 82.103,198.944 83.925 C 198.570 84.522,197.101 86.430,195.678 88.166 C 194.255 89.901,192.560 91.977,191.911 92.779 C 190.249 94.829,180.826 105.193,176.557 109.666 C 174.589 111.728,170.317 116.344,167.064 119.923 C 163.811 123.502,157.065 130.759,152.074 136.049 C 147.082 141.340,141.471 147.318,139.605 149.334 C 136.111 153.109,128.975 160.760,123.077 167.053 C 114.894 175.785,109.060 182.050,104.336 187.179 C 101.539 190.217,97.186 194.921,94.663 197.633 C 92.140 200.345,86.277 206.647,81.634 211.637 C 76.991 216.627,72.035 221.852,70.620 223.248 C 68.436 225.401,68.336 225.554,69.954 224.258 C 71.003 223.418,72.512 221.988,73.307 221.082 C 74.103 220.175,80.523 213.249,87.574 205.691 C 94.625 198.133,101.533 190.698,102.925 189.170 C 104.317 187.641,107.881 183.817,110.846 180.671 C 113.810 177.525,117.275 173.797,118.545 172.387 C 119.816 170.976,122.031 168.580,123.468 167.061 C 124.905 165.542,127.141 163.146,128.437 161.736 C 129.733 160.325,133.815 155.976,137.509 152.071 C 141.202 148.166,146.789 142.219,149.925 138.856 C 153.060 135.493,156.128 132.209,156.741 131.558 C 157.355 130.907,161.703 126.204,166.404 121.106 C 171.105 116.008,176.548 110.145,178.501 108.078 C 183.259 103.041,192.119 93.247,193.081 91.961 C 196.683 87.142,200.368 83.492,201.278 83.841 C 201.862 84.066,212.899 95.773,218.556 102.170 C 220.378 104.231,222.787 106.893,223.908 108.087 C 230.905 115.536,231.828 116.777,230.881 117.467 C 230.494 117.750,229.822 118.284,229.387 118.655 C 228.952 119.026,226.822 120.749,224.653 122.484 C 214.048 130.968,198.439 146.481,186.584 160.320 C 184.742 162.470,181.992 165.631,180.473 167.344 C 178.955 169.057,175.798 172.801,173.458 175.663 C 171.119 178.526,168.916 181.214,168.563 181.636 C 143.281 211.914,117.509 265.375,110.076 302.959 C 106.758 319.739,105.545 330.239,106.845 330.935 C 107.883 331.491,292.613 331.530,293.491 330.975 C 294.012 330.645,294.106 322.162,294.280 259.811 C 294.389 220.876,294.607 188.890,294.766 188.732 C 295.514 187.984,305.052 197.196,323.996 216.963 C 330.854 224.118,333.152 226.036,334.875 226.036 C 337.280 226.036,342.937 220.728,344.016 217.459 C 345.110 214.144,345.344 214.449,326.233 194.272 C 321.713 189.501,312.140 179.253,309.672 176.545 C 308.692 175.470,306.288 172.896,304.330 170.825 C 302.373 168.755,299.958 166.174,298.965 165.089 C 296.023 161.876,286.643 151.777,272.978 137.110 C 249.182 111.569,237.778 99.153,230.721 91.102 C 221.310 80.366,219.370 78.126,217.754 76.134 C 214.584 72.225,204.771 61.231,203.701 60.389 C 201.764 58.865,201.207 59.180,195.574 64.990 M95.726 101.249 C 95.582 101.394,95.475 101.882,95.489 102.334 C 95.512 103.119,95.530 103.116,95.873 102.261 L 96.232 101.367 116.915 101.472 C 128.290 101.530,137.515 101.445,137.415 101.282 C 137.188 100.917,96.092 100.884,95.726 101.249 M95.242 114.004 C 95.242 119.970,95.297 122.411,95.364 119.428 C 95.431 116.445,95.431 111.563,95.364 108.580 C 95.297 105.597,95.242 108.037,95.242 114.004 M94.675 171.376 C 94.675 172.770,94.434 173.391,93.491 174.423 C 92.840 175.135,92.308 175.873,92.308 176.062 C 92.308 176.251,92.929 175.662,93.688 174.753 C 94.928 173.269,95.769 169.625,94.872 169.625 C 94.763 169.625,94.675 170.413,94.675 171.376 M82.785 186.680 C 77.717 192.155,71.972 198.331,70.020 200.405 C 68.067 202.479,65.596 205.145,64.528 206.329 C 63.461 207.513,61.774 209.375,60.781 210.467 C 59.787 211.560,60.128 211.293,61.538 209.876 C 62.949 208.458,69.606 201.354,76.331 194.090 C 83.057 186.825,89.429 179.947,90.491 178.804 C 91.553 177.661,92.327 176.726,92.211 176.726 C 92.094 176.726,87.853 181.205,82.785 186.680 M57.813 213.894 C 57.046 214.989,57.044 215.429,57.797 216.394 C 58.353 217.106,58.363 217.085,57.939 216.091 C 57.565 215.217,57.601 214.840,58.139 214.020 C 58.946 212.788,58.664 212.680,57.813 213.894 M59.078 218.343 C 59.531 218.994,61.108 220.680,62.584 222.091 L 65.267 224.655 62.139 221.302 C 60.418 219.458,58.840 217.771,58.633 217.554 C 58.425 217.337,58.625 217.692,59.078 218.343 M159.074 233.027 C 157.313 233.246,157.360 232.709,157.484 251.282 L 157.594 267.653 174.951 267.653 L 192.308 267.653 192.411 250.736 C 192.485 238.575,192.388 233.668,192.066 233.280 C 191.639 232.766,162.953 232.545,159.074 233.027 M191.774 236.318 C 192.271 241.247,191.964 266.183,191.400 266.746 C 190.650 267.494,160.371 267.492,159.060 266.745 L 158.160 266.231 158.271 250.308 C 158.333 241.550,158.530 234.237,158.711 234.056 C 159.084 233.683,189.019 233.214,190.533 233.557 C 191.423 233.759,191.544 234.028,191.774 236.318 M212.327 233.397 C 211.369 233.784,211.639 266.929,212.606 267.446 C 213.116 267.719,218.886 267.824,229.667 267.756 L 245.957 267.653 245.836 250.715 C 245.769 241.400,245.626 233.634,245.517 233.457 C 245.306 233.117,213.167 233.059,212.327 233.397 M244.568 234.306 C 245.226 234.723,245.942 264.484,245.334 266.131 C 244.857 267.424,216.473 268.059,213.316 266.848 C 211.505 266.153,211.749 235.046,213.571 234.310 C 214.717 233.846,243.836 233.844,244.568 234.306 M161.341 280.473 L 157.594 280.671 157.491 298.126 L 157.388 315.582 174.721 315.582 L 192.054 315.582 192.305 313.511 C 192.620 310.908,192.396 281.021,192.059 280.684 C 191.750 280.376,166.479 280.203,161.341 280.473 M212.403 281.033 C 211.665 281.572,211.637 282.219,211.637 298.489 L 211.637 315.385 228.994 315.385 L 246.351 315.385 246.461 298.817 C 246.521 289.704,246.473 281.849,246.355 281.361 L 246.139 280.473 229.654 280.473 C 216.041 280.473,213.035 280.571,212.403 281.033 M190.927 281.914 C 191.434 282.394,191.519 284.761,191.519 298.450 C 191.519 312.218,191.437 314.480,190.927 314.811 C 190.199 315.283,158.794 315.139,158.316 314.662 C 157.872 314.217,157.653 285.025,158.079 283.037 L 158.417 281.460 170.037 281.246 C 184.546 280.979,190.127 281.158,190.927 281.914 M245.286 281.736 C 245.795 282.245,246.000 310.732,245.512 313.171 C 245.332 314.068,244.979 314.487,244.230 314.691 C 242.581 315.142,213.062 314.995,212.601 314.534 C 211.747 313.680,212.311 282.466,213.192 281.822 C 214.228 281.065,244.534 280.984,245.286 281.736 " stroke="none" fill="#97cfe5" fill-rule="evenodd"></path><path id="path3" d="M200.278 60.876 C 199.800 61.379,197.456 63.822,195.069 66.303 C 190.084 71.486,181.443 81.037,178.288 84.852 C 175.173 88.617,159.748 105.658,150.108 115.984 C 145.547 120.870,141.082 125.708,140.187 126.734 C 137.615 129.682,137.694 130.034,137.579 115.089 L 137.475 101.578 116.855 101.476 L 96.236 101.374 95.837 102.422 C 95.587 103.080,95.346 116.450,95.189 138.358 L 94.939 173.247 93.722 174.819 C 91.933 177.130,85.728 184.002,76.134 194.300 C 55.633 216.303,57.108 214.470,58.196 216.612 C 59.131 218.450,66.431 225.641,67.363 225.641 C 68.342 225.641,71.360 222.680,81.634 211.637 C 86.277 206.647,92.140 200.345,94.663 197.633 C 97.186 194.921,101.539 190.217,104.336 187.179 C 109.060 182.050,114.894 175.785,123.077 167.053 C 128.975 160.760,136.111 153.109,139.605 149.334 C 141.471 147.318,147.082 141.340,152.074 136.049 C 157.065 130.759,163.811 123.502,167.064 119.923 C 170.317 116.344,174.589 111.728,176.557 109.666 C 180.826 105.193,190.249 94.829,191.911 92.779 C 192.560 91.977,194.262 89.901,195.692 88.166 C 197.122 86.430,198.441 84.744,198.623 84.418 C 198.981 83.777,194.651 88.365,192.481 90.927 C 191.746 91.795,189.446 94.369,187.371 96.647 C 185.296 98.925,182.806 101.696,181.839 102.804 C 179.415 105.581,158.700 128.119,155.231 131.755 C 153.678 133.383,150.722 136.489,148.663 138.659 C 146.603 140.828,142.888 144.740,140.408 147.352 C 137.927 149.963,133.870 154.312,131.391 157.016 C 128.913 159.721,125.185 163.714,123.107 165.890 C 121.029 168.067,118.629 170.641,117.774 171.610 C 116.918 172.580,113.880 175.858,111.022 178.895 C 108.163 181.933,104.712 185.661,103.353 187.179 C 101.994 188.698,99.162 191.716,97.059 193.886 C 94.957 196.055,90.679 200.671,87.553 204.142 C 81.403 210.971,74.307 218.464,70.281 222.380 L 67.753 224.839 66.586 224.155 C 63.238 222.192,58.118 215.828,58.825 214.507 C 59.155 213.890,64.605 207.771,68.263 203.909 C 74.818 196.991,92.977 177.248,93.700 176.255 C 94.222 175.537,94.958 174.525,95.337 174.005 C 95.980 173.121,96.019 170.876,95.935 139.393 C 95.870 115.307,95.972 105.221,96.293 103.948 L 96.741 102.170 116.812 102.170 L 136.884 102.170 136.884 115.352 C 136.884 131.376,136.897 131.432,139.867 128.107 C 140.691 127.184,143.789 123.856,146.753 120.710 C 149.717 117.564,153.191 113.844,154.473 112.444 C 155.755 111.044,158.136 108.464,159.763 106.711 C 164.062 102.081,177.078 87.315,178.893 85.010 C 179.747 83.925,181.251 82.122,182.235 81.002 C 183.219 79.883,185.000 77.821,186.193 76.422 C 187.387 75.022,191.308 70.904,194.908 67.271 L 201.454 60.665 202.601 61.259 C 204.248 62.113,209.164 67.448,217.943 77.909 C 227.426 89.209,249.023 113.097,264.103 128.966 C 266.489 131.477,270.474 135.751,272.957 138.462 C 275.440 141.174,279.893 145.966,282.852 149.112 C 285.811 152.258,289.257 155.986,290.509 157.396 C 291.762 158.807,293.172 160.318,293.643 160.754 C 294.114 161.191,296.004 163.228,297.842 165.283 C 299.680 167.337,304.201 172.226,307.890 176.147 C 313.495 182.106,329.009 198.664,330.383 200.155 C 331.698 201.580,339.384 210.031,341.125 211.965 C 343.887 215.033,343.937 216.307,341.425 219.541 C 338.152 223.756,335.345 225.416,333.682 224.117 C 333.165 223.713,332.357 223.262,331.888 223.115 C 331.418 222.968,326.417 218.018,320.773 212.114 C 315.129 206.211,307.528 198.452,303.881 194.872 C 299.776 190.842,301.007 192.194,307.114 198.422 C 312.539 203.955,319.691 211.410,323.008 214.990 C 326.326 218.570,329.667 221.943,330.433 222.485 C 331.199 223.028,332.432 223.979,333.173 224.599 C 335.074 226.189,335.994 225.819,339.854 221.915 C 345.398 216.308,345.321 215.613,338.331 208.170 C 335.639 205.304,331.683 201.065,329.539 198.751 C 327.395 196.437,322.091 190.751,317.751 186.115 C 313.412 181.479,306.844 174.413,303.156 170.413 C 299.467 166.413,294.941 161.536,293.097 159.576 C 291.252 157.615,286.356 152.373,282.215 147.927 C 278.074 143.480,269.301 134.073,262.718 127.022 C 243.038 105.939,224.911 85.726,213.544 72.186 C 203.765 60.538,202.016 59.047,200.278 60.876 M205.527 87.041 C 206.718 88.375,209.822 91.761,212.426 94.565 C 215.030 97.370,220.160 102.979,223.827 107.031 C 227.494 111.083,230.571 114.398,230.665 114.398 C 230.859 114.398,229.829 113.225,222.880 105.528 C 213.887 95.567,204.872 85.807,204.112 85.207 C 203.699 84.882,204.336 85.707,205.527 87.041 M226.627 121.732 C 224.892 123.152,223.205 124.597,222.880 124.942 C 222.160 125.707,226.407 122.430,228.600 120.530 C 231.290 118.197,229.949 119.014,226.627 121.732 M214.591 132.076 C 206.072 139.823,191.319 155.167,190.057 157.594 C 189.832 158.028,190.333 157.584,191.171 156.607 C 196.861 149.981,210.395 136.289,218.047 129.416 C 221.620 126.208,222.378 125.444,221.988 125.444 C 221.931 125.444,218.603 128.428,214.591 132.076 M185.511 162.597 C 183.608 164.807,180.912 167.869,179.519 169.402 C 173.375 176.167,154.981 200.394,155.989 200.394 C 156.096 200.394,156.933 199.285,157.848 197.929 C 162.854 190.512,173.516 176.740,179.397 170.092 C 181.291 167.952,183.741 165.151,184.842 163.869 C 185.943 162.587,187.426 160.873,188.137 160.059 C 188.849 159.246,189.327 158.580,189.201 158.580 C 189.075 158.580,187.414 160.388,185.511 162.597 M293.194 259.862 C 293.141 298.536,293.052 330.212,292.998 330.254 C 292.944 330.296,288.018 330.436,282.051 330.565 L 271.203 330.800 282.162 330.883 C 290.629 330.948,293.164 330.854,293.309 330.473 C 293.412 330.202,293.450 298.383,293.394 259.763 L 293.292 189.546 293.194 259.862 M154.167 202.860 C 151.671 206.636,151.387 207.101,151.575 207.101 C 151.740 207.101,152.820 205.545,155.205 201.874 C 155.592 201.277,155.825 200.789,155.723 200.789 C 155.620 200.789,154.920 201.721,154.167 202.860 M149.613 209.961 C 147.532 213.285,147.460 213.412,147.673 213.412 C 147.775 213.412,148.553 212.303,149.401 210.947 C 151.482 207.622,151.553 207.495,151.341 207.495 C 151.239 207.495,150.461 208.605,149.613 209.961 M145.457 216.864 C 142.989 221.024,141.977 222.880,142.175 222.880 C 142.283 222.880,143.113 221.593,144.019 220.020 C 144.925 218.447,146.013 216.583,146.435 215.878 C 146.858 215.173,147.114 214.596,147.004 214.596 C 146.893 214.596,146.197 215.616,145.457 216.864 M140.828 224.852 C 140.386 225.720,140.112 226.430,140.221 226.430 C 140.329 226.430,140.780 225.720,141.223 224.852 C 141.666 223.984,141.939 223.274,141.831 223.274 C 141.722 223.274,141.271 223.984,140.828 224.852 M138.067 229.980 C 137.194 231.716,136.569 233.136,136.678 233.136 C 136.786 233.136,137.589 231.716,138.462 229.980 C 139.334 228.245,139.959 226.824,139.851 226.824 C 139.743 226.824,138.940 228.245,138.067 229.980 M170.290 232.642 C 174.019 232.707,180.232 232.707,184.097 232.643 C 187.962 232.578,184.911 232.525,177.318 232.525 C 169.724 232.525,166.562 232.577,170.290 232.642 M223.742 233.037 C 227.362 233.102,233.398 233.102,237.154 233.037 C 240.911 232.972,237.949 232.919,230.572 232.919 C 223.195 232.919,220.122 232.972,223.742 233.037 M245.872 235.700 C 245.875 236.785,245.952 237.182,246.042 236.582 C 246.133 235.983,246.131 235.095,246.037 234.610 C 245.943 234.125,245.869 234.615,245.872 235.700 M192.685 250.493 C 192.685 259.497,192.737 263.180,192.800 258.679 C 192.864 254.177,192.864 246.810,192.800 242.308 C 192.737 237.806,192.685 241.489,192.685 250.493 M211.620 250.888 C 211.620 259.675,211.672 263.269,211.735 258.876 C 211.799 254.482,211.799 247.293,211.735 242.899 C 211.672 238.506,211.620 242.101,211.620 250.888 M246.057 252.860 C 246.161 260.562,246.315 266.938,246.398 267.028 C 246.626 267.278,246.480 254.798,246.155 246.351 C 245.962 241.338,245.929 243.493,246.057 252.860 M157.179 252.268 C 157.179 259.645,157.232 262.607,157.297 258.850 C 157.362 255.094,157.362 249.058,157.297 245.438 C 157.232 241.818,157.179 244.892,157.179 252.268 M132.349 241.023 C 131.555 242.557,130.842 244.437,131.183 244.096 C 131.560 243.719,133.333 239.842,133.128 239.842 C 133.035 239.842,132.684 240.374,132.349 241.023 M130.051 245.975 C 129.124 247.918,129.255 248.249,130.223 246.412 C 130.663 245.578,130.954 244.826,130.868 244.741 C 130.783 244.656,130.415 245.211,130.051 245.975 M128.280 249.921 C 127.091 252.367,127.224 252.709,128.448 250.356 C 128.995 249.304,129.375 248.376,129.293 248.294 C 129.210 248.211,128.754 248.943,128.280 249.921 M124.559 258.491 C 122.389 263.755,121.619 265.854,121.995 265.483 C 122.335 265.148,127.013 253.509,126.867 253.363 C 126.791 253.287,125.752 255.594,124.559 258.491 M120.417 268.912 C 118.713 273.403,117.053 278.526,117.242 278.714 C 117.331 278.804,117.813 277.595,118.312 276.027 C 118.811 274.458,119.824 271.596,120.564 269.665 C 121.303 267.735,121.835 266.083,121.747 265.994 C 121.658 265.905,121.059 267.218,120.417 268.912 M169.724 268.145 C 173.575 268.210,179.877 268.210,183.728 268.145 C 187.579 268.081,184.428 268.028,176.726 268.028 C 169.024 268.028,165.873 268.081,169.724 268.145 M224.187 268.145 C 227.835 268.211,233.693 268.210,237.205 268.145 C 240.716 268.080,237.732 268.027,230.572 268.027 C 223.412 268.027,220.539 268.080,224.187 268.145 M160.059 280.368 C 160.981 280.451,162.490 280.451,163.412 280.368 C 164.334 280.285,163.580 280.217,161.736 280.217 C 159.892 280.217,159.137 280.285,160.059 280.368 M166.573 280.362 C 167.173 280.453,168.061 280.450,168.546 280.357 C 169.031 280.263,168.540 280.189,167.456 280.192 C 166.371 280.195,165.974 280.271,166.573 280.362 M175.041 280.364 C 175.741 280.451,176.983 280.452,177.802 280.367 C 178.620 280.281,178.047 280.210,176.529 280.208 C 175.010 280.207,174.340 280.276,175.041 280.364 M184.924 280.370 C 186.071 280.450,187.846 280.449,188.869 280.368 C 189.893 280.287,188.955 280.222,186.785 280.223 C 184.615 280.224,183.778 280.290,184.924 280.370 M224.136 280.374 C 227.757 280.439,233.792 280.439,237.549 280.374 C 241.305 280.309,238.343 280.256,230.966 280.256 C 223.590 280.256,220.516 280.309,224.136 280.374 M157.183 298.225 C 157.183 307.446,157.234 311.218,157.297 306.607 C 157.361 301.997,157.361 294.453,157.297 289.842 C 157.234 285.232,157.183 289.004,157.183 298.225 M115.413 283.855 C 115.268 284.433,115.225 284.982,115.318 285.075 C 115.411 285.168,115.606 284.771,115.751 284.193 C 115.896 283.615,115.939 283.066,115.846 282.973 C 115.753 282.880,115.558 283.276,115.413 283.855 M211.224 299.803 C 211.224 307.939,211.277 311.267,211.341 307.199 C 211.405 303.131,211.405 296.474,211.341 292.406 C 211.277 288.338,211.224 291.667,211.224 299.803 M113.837 289.577 C 113.247 291.771,112.837 293.639,112.925 293.727 C 113.013 293.815,113.567 292.091,114.156 289.895 C 114.744 287.700,115.155 285.832,115.068 285.745 C 114.981 285.658,114.427 287.382,113.837 289.577 M246.725 300.986 C 246.725 308.254,246.778 311.228,246.844 307.594 C 246.909 303.960,246.909 298.013,246.844 294.379 C 246.778 290.745,246.725 293.718,246.725 300.986 M112.229 295.464 C 112.079 296.145,112.039 296.786,112.139 296.886 C 112.240 296.987,112.435 296.502,112.574 295.809 C 112.903 294.164,112.584 293.846,112.229 295.464 M111.121 300.337 C 110.754 302.008,110.469 303.681,110.487 304.055 C 110.505 304.428,110.860 303.225,111.276 301.381 C 111.692 299.538,111.977 297.865,111.910 297.664 C 111.844 297.464,111.488 298.666,111.121 300.337 M109.091 311.063 C 108.940 312.070,108.897 312.974,108.996 313.072 C 109.094 313.171,109.299 312.428,109.450 311.422 C 109.600 310.416,109.643 309.512,109.545 309.413 C 109.446 309.314,109.242 310.057,109.091 311.063 M157.824 315.744 C 158.216 316.129,177.584 316.346,184.418 316.041 C 191.220 315.738,190.329 315.701,174.786 315.645 C 165.367 315.610,157.733 315.655,157.824 315.744 M220.638 315.877 C 225.154 315.941,232.432 315.941,236.811 315.877 C 241.190 315.814,237.495 315.762,228.600 315.762 C 219.704 315.762,216.121 315.814,220.638 315.877 M108.186 317.751 C 108.191 318.619,108.271 318.928,108.366 318.437 C 108.460 317.947,108.457 317.236,108.358 316.859 C 108.259 316.482,108.182 316.884,108.186 317.751 M107.073 324.951 C 106.914 326.415,106.767 328.235,106.745 328.994 L 106.706 330.375 114.398 330.392 L 122.091 330.410 114.597 330.195 L 107.102 329.980 107.206 328.402 C 107.263 327.535,107.413 325.804,107.540 324.556 C 107.666 323.309,107.678 322.288,107.565 322.288 C 107.453 322.288,107.231 323.486,107.073 324.951 M137.007 330.473 C 140.655 330.538,146.513 330.538,150.025 330.473 C 153.537 330.407,150.552 330.354,143.393 330.354 C 136.233 330.354,133.359 330.408,137.007 330.473 M262.623 330.863 C 263.762 330.943,265.626 330.943,266.765 330.863 C 267.904 330.783,266.972 330.718,264.694 330.718 C 262.416 330.718,261.484 330.783,262.623 330.863 " stroke="none" fill="#7f8999" fill-rule="evenodd"></path><path id="path4" d="M201.183 59.064 C 198.813 59.697,196.869 61.310,190.560 67.878 C 186.779 71.815,183.406 75.535,183.065 76.145 C 180.439 80.845,176.142 86.322,168.182 95.113 C 165.552 98.018,161.583 102.436,159.361 104.931 C 157.140 107.426,153.881 110.976,152.119 112.821 C 150.357 114.665,147.850 117.324,146.548 118.730 C 143.229 122.314,139.146 125.891,138.785 125.531 C 138.618 125.364,138.428 122.303,138.363 118.728 L 138.243 112.229 138.155 120.020 C 138.068 127.772,138.219 128.656,139.358 127.031 C 139.658 126.602,142.391 123.628,145.432 120.423 C 151.194 114.349,161.908 102.699,165.918 98.148 C 167.197 96.696,170.384 93.145,172.998 90.259 C 177.456 85.337,181.334 80.731,183.298 78.025 C 184.964 75.730,200.140 60.151,201.075 59.776 C 202.778 59.093,208.012 64.180,217.094 75.345 C 218.417 76.972,221.281 80.335,223.458 82.818 C 225.635 85.301,228.903 89.029,230.721 91.102 C 237.778 99.153,249.182 111.569,272.978 137.110 C 286.643 151.777,296.023 161.876,298.965 165.089 C 299.958 166.174,302.373 168.755,304.330 170.825 C 306.288 172.896,308.692 175.470,309.672 176.545 C 312.140 179.253,321.713 189.501,326.233 194.272 C 345.344 214.449,345.110 214.144,344.016 217.459 C 342.937 220.728,337.280 226.036,334.875 226.036 C 333.152 226.036,330.854 224.118,323.996 216.963 C 305.052 197.196,295.514 187.984,294.766 188.732 C 294.607 188.890,294.389 220.876,294.280 259.811 C 294.106 322.162,294.012 330.645,293.491 330.975 C 292.613 331.530,107.883 331.491,106.845 330.935 C 105.696 330.320,106.209 324.649,108.717 310.256 C 113.087 285.172,120.750 263.006,134.664 235.208 C 143.286 217.983,159.157 192.901,168.563 181.636 C 168.916 181.214,171.119 178.526,173.458 175.663 C 175.798 172.801,178.955 169.057,180.473 167.344 C 181.992 165.631,184.742 162.470,186.584 160.320 C 198.439 146.481,214.048 130.968,224.653 122.484 C 226.822 120.749,228.952 119.026,229.387 118.655 C 229.822 118.284,230.494 117.750,230.881 117.467 C 231.828 116.777,230.905 115.536,223.908 108.087 C 222.787 106.893,220.378 104.231,218.556 102.170 C 213.047 95.940,201.869 84.068,201.312 83.854 C 200.386 83.499,199.833 83.973,196.435 88.026 C 194.599 90.216,191.943 93.274,190.533 94.822 C 183.994 101.998,181.753 104.567,181.899 104.713 C 181.986 104.800,183.121 103.625,184.420 102.102 C 185.719 100.578,188.168 97.974,189.862 96.313 C 191.557 94.652,193.188 92.837,193.487 92.280 C 195.204 89.076,200.456 85.823,202.136 86.924 C 206.876 90.030,226.990 113.119,227.794 116.378 C 228.092 117.584,225.596 120.352,222.322 122.446 C 221.153 123.194,219.264 124.929,218.123 126.301 C 216.983 127.674,215.573 129.152,214.991 129.586 C 214.408 130.020,212.348 131.931,210.413 133.833 C 208.477 135.735,206.357 137.617,205.701 138.016 C 205.045 138.415,203.776 139.616,202.881 140.686 C 201.985 141.755,200.836 142.853,200.327 143.126 C 199.819 143.398,198.971 144.250,198.443 145.020 C 197.916 145.790,194.899 149.023,191.738 152.204 C 188.490 155.473,184.192 160.346,181.852 163.412 C 179.575 166.395,177.601 168.836,177.464 168.836 C 177.327 168.836,176.458 169.840,175.532 171.066 C 174.606 172.292,173.032 174.208,172.033 175.324 C 168.130 179.686,166.349 181.858,165.014 183.885 C 164.250 185.046,162.978 186.734,162.187 187.635 C 161.396 188.536,160.128 190.299,159.369 191.552 C 158.609 192.805,157.184 194.908,156.201 196.225 C 155.218 197.542,153.647 199.862,152.711 201.381 C 151.775 202.899,150.449 204.983,149.765 206.010 C 149.080 207.038,148.122 208.546,147.635 209.363 C 147.148 210.180,145.569 212.801,144.128 215.187 C 142.686 217.574,141.115 220.237,140.636 221.105 C 140.157 221.972,139.028 223.877,138.127 225.338 C 137.226 226.799,136.489 228.101,136.489 228.232 C 136.489 228.363,134.181 233.164,131.361 238.901 C 128.540 244.638,126.233 249.399,126.233 249.483 C 126.233 249.566,125.611 250.961,124.852 252.582 C 124.093 254.204,123.470 255.773,123.469 256.069 C 123.467 256.365,123.114 257.140,122.682 257.791 C 122.251 258.442,121.898 259.291,121.896 259.679 C 121.895 260.066,121.626 260.791,121.298 261.291 C 120.971 261.790,120.187 263.692,119.556 265.518 C 118.924 267.343,117.686 270.700,116.804 272.978 C 115.921 275.256,115.197 277.342,115.193 277.612 C 115.190 277.882,114.852 279.125,114.442 280.373 C 112.225 287.119,111.273 290.489,110.682 293.688 C 109.515 299.994,108.622 304.172,107.521 308.481 C 105.600 315.991,104.602 330.187,105.902 331.487 C 107.231 332.816,111.290 333.007,137.475 332.972 C 296.531 332.757,291.620 332.787,293.207 332.041 C 296.331 330.573,296.362 330.404,295.996 316.765 C 295.408 294.924,295.575 197.245,296.202 195.759 C 297.345 193.050,300.222 194.484,305.917 200.603 C 308.304 203.168,311.031 205.989,311.977 206.873 C 312.923 207.758,315.941 210.785,318.683 213.601 C 332.688 227.982,334.655 228.961,340.131 224.274 C 346.597 218.739,346.699 214.528,340.542 207.298 C 336.056 202.030,336.643 202.651,334.561 200.972 C 333.609 200.205,332.311 198.924,331.677 198.127 C 331.043 197.329,328.155 194.185,325.258 191.139 C 322.362 188.093,319.365 184.843,318.600 183.917 C 317.834 182.990,315.733 180.878,313.929 179.224 C 312.126 177.570,309.919 175.128,309.024 173.796 C 308.129 172.465,305.934 170.050,304.145 168.429 C 302.357 166.809,300.482 164.882,299.979 164.147 C 298.979 162.686,293.887 157.190,284.418 147.353 C 277.835 140.514,275.367 137.845,273.680 135.743 C 271.162 132.607,264.665 125.678,261.932 123.214 C 261.173 122.530,258.955 120.145,257.002 117.915 C 255.049 115.684,252.143 112.605,250.544 111.072 C 248.945 109.538,247.145 107.574,246.543 106.706 C 245.941 105.838,243.992 103.619,242.211 101.775 C 240.429 99.931,238.074 97.357,236.976 96.055 C 234.533 93.160,232.543 90.984,229.191 87.545 C 227.781 86.098,225.749 83.781,224.676 82.398 C 219.586 75.832,218.144 74.111,214.971 70.809 C 213.095 68.856,211.092 66.548,210.521 65.680 C 208.322 62.338,203.012 58.575,201.183 59.064 M95.721 100.888 C 95.555 101.156,111.048 101.152,129.783 100.877 C 133.797 100.819,127.816 100.730,116.493 100.681 C 105.169 100.632,95.822 100.725,95.721 100.888 M177.680 108.974 C 176.372 110.330,173.363 113.570,170.993 116.174 C 168.623 118.777,164.396 123.348,161.600 126.331 C 158.805 129.315,156.613 131.755,156.729 131.755 C 156.924 131.755,166.469 121.589,176.269 110.941 C 180.696 106.132,181.498 105.013,177.680 108.974 M94.856 151.874 C 94.856 161.746,94.907 165.784,94.970 160.848 C 95.033 155.912,95.033 147.835,94.970 142.899 C 94.907 137.964,94.856 142.002,94.856 151.874 M152.059 136.588 L 149.704 139.053 152.170 136.699 C 154.460 134.512,154.816 134.122,154.524 134.122 C 154.463 134.122,153.354 135.232,152.059 136.588 M143.020 146.252 C 140.005 149.453,139.001 150.651,140.790 148.915 C 143.893 145.904,148.964 140.434,148.651 140.434 C 148.570 140.434,146.036 143.052,143.020 146.252 M134.114 155.720 L 130.769 159.172 134.221 155.827 C 137.427 152.721,137.852 152.268,137.565 152.268 C 137.506 152.268,135.953 153.821,134.114 155.720 M125.452 164.990 C 123.197 167.431,122.022 168.807,122.841 168.047 C 124.491 166.518,129.958 160.552,129.709 160.552 C 129.623 160.552,127.707 162.549,125.452 164.990 M94.280 171.821 C 94.280 172.377,94.093 173.221,93.864 173.695 C 93.462 174.527,93.468 174.530,94.061 173.790 C 94.622 173.090,94.941 170.809,94.477 170.809 C 94.369 170.809,94.280 171.264,94.280 171.821 M118.343 172.584 C 117.385 173.560,116.690 174.359,116.798 174.359 C 116.907 174.359,117.779 173.560,118.738 172.584 C 119.696 171.607,120.391 170.809,120.283 170.809 C 120.174 170.809,119.301 171.607,118.343 172.584 M112.950 178.438 C 109.784 181.733,107.907 184.056,110.508 181.460 C 112.886 179.085,116.500 175.148,116.300 175.148 C 116.196 175.148,114.688 176.628,112.950 178.438 M90.156 178.286 L 88.201 180.473 90.334 178.416 C 91.508 177.285,92.387 176.301,92.289 176.229 C 92.191 176.158,91.231 177.084,90.156 178.286 M85.392 183.531 L 83.037 185.996 85.503 183.642 C 87.793 181.454,88.149 181.065,87.857 181.065 C 87.796 181.065,86.687 182.175,85.392 183.531 M106.691 185.108 L 104.734 187.179 106.805 185.222 C 107.944 184.145,108.876 183.213,108.876 183.151 C 108.876 182.857,108.510 183.184,106.691 185.108 M80.485 188.703 L 78.328 191.124 80.781 188.770 C 82.131 187.475,83.235 186.365,83.235 186.304 C 83.235 185.844,82.331 186.632,80.485 188.703 M99.878 192.473 C 97.233 195.276,95.069 197.650,95.069 197.748 C 95.069 197.846,96.619 196.307,98.513 194.328 C 103.834 188.770,105.112 187.377,104.891 187.377 C 104.779 187.377,102.523 189.670,99.878 192.473 M75.334 194.379 L 72.781 197.041 75.444 194.489 C 76.908 193.085,78.107 191.886,78.107 191.826 C 78.107 191.536,77.705 191.905,75.334 194.379 M72.387 197.554 C 72.170 197.721,70.750 199.183,69.231 200.802 L 66.470 203.748 69.724 200.601 C 71.514 198.870,72.978 197.406,72.978 197.347 C 72.978 197.171,72.806 197.232,72.387 197.554 M87.023 206.312 C 83.182 210.434,80.154 213.807,80.296 213.807 C 80.437 213.807,81.644 212.608,82.978 211.144 C 85.647 208.214,89.930 203.598,92.677 200.690 C 93.651 199.660,94.349 198.817,94.228 198.817 C 94.107 198.817,90.865 202.189,87.023 206.312 M64.728 205.621 C 63.846 206.543,63.123 207.461,63.121 207.659 C 63.118 207.858,63.161 207.944,63.215 207.849 C 63.269 207.755,64.105 206.838,65.072 205.811 C 66.040 204.785,66.719 203.945,66.581 203.945 C 66.444 203.945,65.610 204.699,64.728 205.621 M60.537 210.355 L 58.580 212.426 60.651 210.468 C 61.790 209.392,62.722 208.460,62.722 208.397 C 62.722 208.103,62.356 208.431,60.537 210.355 M76.910 217.258 C 72.174 222.160,70.431 224.063,70.678 224.063 C 70.805 224.063,72.990 221.844,75.535 219.132 C 78.079 216.420,80.094 214.201,80.012 214.201 C 79.930 214.201,78.534 215.577,76.910 217.258 M61.933 221.893 C 63.331 223.304,64.563 224.458,64.671 224.458 C 64.780 224.458,63.725 223.304,62.327 221.893 C 60.930 220.483,59.697 219.329,59.589 219.329 C 59.480 219.329,60.535 220.483,61.933 221.893 M174.293 233.531 C 165.903 233.639,158.891 233.876,158.711 234.056 C 158.530 234.237,158.333 241.550,158.271 250.308 L 158.160 266.231 159.060 266.745 C 160.371 267.492,190.650 267.494,191.400 266.746 C 191.964 266.183,192.271 241.247,191.774 236.318 C 191.448 233.075,192.805 233.291,174.293 233.531 M213.571 234.310 C 211.749 235.046,211.505 266.153,213.316 266.848 C 216.473 268.059,244.857 267.424,245.334 266.131 C 245.942 264.484,245.226 234.723,244.568 234.306 C 243.836 233.844,214.717 233.846,213.571 234.310 M187.250 235.341 C 188.374 235.457,189.501 235.802,189.753 236.106 C 190.826 237.399,191.218 260.705,190.209 263.196 C 189.261 265.538,188.385 265.683,175.345 265.659 C 158.236 265.629,159.510 266.908,159.905 250.164 C 160.214 237.091,160.135 237.385,163.764 235.844 L 166.272 234.779 175.740 234.954 C 180.947 235.050,186.127 235.224,187.250 235.341 M241.896 236.377 C 243.498 237.427,243.700 238.850,243.966 250.969 C 244.325 267.319,245.236 266.470,227.613 266.215 C 212.763 266.000,213.185 266.541,213.704 248.375 C 214.071 235.559,213.687 236.347,219.783 235.889 C 227.474 235.312,240.717 235.604,241.896 236.377 M170.037 281.246 L 158.417 281.460 158.079 283.037 C 157.653 285.025,157.872 314.217,158.316 314.662 C 158.794 315.139,190.199 315.283,190.927 314.811 C 191.437 314.480,191.519 312.218,191.519 298.450 C 191.519 284.761,191.434 282.394,190.927 281.914 C 190.127 281.158,184.546 280.979,170.037 281.246 M213.192 281.822 C 212.311 282.466,211.747 313.680,212.601 314.534 C 213.062 314.995,242.581 315.142,244.230 314.691 C 244.979 314.487,245.332 314.068,245.512 313.171 C 246.000 310.732,245.795 282.245,245.286 281.736 C 244.534 280.984,214.228 281.065,213.192 281.822 M240.545 282.689 C 244.344 283.021,244.199 282.466,244.390 297.444 C 244.615 315.148,246.403 313.334,228.913 313.150 C 212.161 312.974,213.592 314.169,213.643 300.394 C 213.698 285.302,213.911 284.007,216.474 283.198 C 219.296 282.308,232.906 282.020,240.545 282.689 M189.100 283.042 C 190.037 283.979,190.165 286.151,190.049 299.102 C 189.909 314.750,191.042 313.569,175.937 313.818 C 158.872 314.100,159.261 314.504,159.441 296.713 C 159.579 283.190,159.490 283.646,162.130 282.905 C 164.587 282.215,188.394 282.336,189.100 283.042 " stroke="none" fill="#c3f2fa" fill-rule="evenodd"></path></g></svg>